<svg width="1200" height="630" viewBox="0 0 1200 630" fill="none" xmlns="http://www.w3.org/2000/svg">
  <defs>
    <linearGradient id="bg" x1="0" y1="0" x2="1200" y2="630" gradientUnits="userSpaceOnUse">
      <stop stop-color="#04110E"/>
      <stop offset="1" stop-color="#0B1F18"/>
    </linearGradient>
    <linearGradient id="accent" x1="120" y1="104" x2="1080" y2="540" gradientUnits="userSpaceOnUse">
      <stop stop-color="#2DD4BF"/>
      <stop offset="1" stop-color="#34D399"/>
    </linearGradient>
    <filter id="blur" x="-20%" y="-20%" width="140%" height="140%">
      <feGaussianBlur stdDeviation="50"/>
    </filter>
  </defs>
  <rect width="1200" height="630" fill="url(#bg)"/>
  <circle cx="180" cy="110" r="140" fill="#10B981" fill-opacity="0.18" filter="url(#blur)"/>
  <circle cx="1040" cy="540" r="170" fill="#2DD4BF" fill-opacity="0.16" filter="url(#blur)"/>
  <rect x="72" y="72" width="1056" height="486" rx="40" fill="white" fill-opacity="0.04" stroke="white" stroke-opacity="0.08"/>

  <text x="112" y="164" fill="#6EE7D8" font-family="Inter, Arial, sans-serif" font-size="26" font-weight="700" letter-spacing="6">SEO BLOG</text>
  <text x="112" y="262" fill="white" font-family="Inter, Arial, sans-serif" font-size="72" font-weight="900" letter-spacing="-2">
    <tspan x="112" dy="0">Find the Right UGC</tspan>
    <tspan x="112" dy="84">Creator for Your Brand</tspan>
    <tspan x="112" dy="84">in India</tspan>
  </text>

  <text x="112" y="482" fill="#A7F3D0" font-family="Inter, Arial, sans-serif" font-size="26" font-weight="600">
    Better creator fit. Faster discovery. Structured offers that close.
  </text>

  <rect x="790" y="146" width="340" height="286" rx="30" fill="white" fill-opacity="0.06" stroke="url(#accent)" stroke-opacity="0.6"/>
  <rect x="828" y="184" width="264" height="38" rx="19" fill="white" fill-opacity="0.08"/>
  <rect x="828" y="240" width="220" height="22" rx="11" fill="#34D399" fill-opacity="0.9"/>
  <rect x="828" y="280" width="176" height="22" rx="11" fill="#2DD4BF" fill-opacity="0.8"/>
  <rect x="828" y="320" width="246" height="22" rx="11" fill="#10B981" fill-opacity="0.7"/>
  <rect x="828" y="360" width="140" height="18" rx="9" fill="white" fill-opacity="0.2"/>
  <circle cx="882" cy="382" r="34" fill="#111827" stroke="#34D399" stroke-width="4"/>
  <circle cx="882" cy="370" r="12" fill="#A7F3D0"/>
  <path d="M858 406c7-14 18-21 24-21s17 7 24 21" stroke="#A7F3D0" stroke-width="4" stroke-linecap="round"/>
  <circle cx="988" cy="382" r="34" fill="#111827" stroke="#2DD4BF" stroke-width="4"/>
  <path d="M979 378h18M979 386h18" stroke="#A7F3D0" stroke-width="4" stroke-linecap="round"/>
  <path d="M992 369v26" stroke="#A7F3D0" stroke-width="4" stroke-linecap="round"/>
  <rect x="106" y="520" width="988" height="2" fill="white" fill-opacity="0.08"/>
  <text x="112" y="566" fill="#94A3B8" font-family="Inter, Arial, sans-serif" font-size="20" font-weight="600">
    Creator Armour Blog • creatorarmour.com/blog
  </text>
</svg>
